<?xml version="1.0" encoding="utf-8"?>
<!-- Generator: Adobe Illustrator 17.1.0, SVG Export Plug-In . SVG Version: 6.00 Build 0)  -->
<!DOCTYPE svg PUBLIC "-//W3C//DTD SVG 1.1//EN" "http://www.w3.org/Graphics/SVG/1.1/DTD/svg11.dtd">
<svg version="1.1" id="Layer_1" xmlns="http://www.w3.org/2000/svg" xmlns:xlink="http://www.w3.org/1999/xlink" x="0px" y="0px"
	 viewBox="179 225.1 122 29.9" enable-background="new 179 225.1 122 29.9" xml:space="preserve">
<path fill="#2A4494" d="M201.2,230.2L201.2,230.2L201.2,230.2c-2-1.4-4.4-2.2-7.1-2.2c-6.9,0-12.5,5.6-12.5,12.5
	c0,6.9,5.6,12.5,12.5,12.5s12.5-5.6,12.5-12.5C206.6,236.2,204.5,232.4,201.2,230.2z M205.7,240.5c0,0.4,0,0.8-0.1,1.2l-0.8-1.2
	l0.8-1.2C205.7,239.7,205.7,240.1,205.7,240.5z M182.5,240.5c0-0.4,0-0.9,0.1-1.3l0.9,1.3l-0.9,1.3
	C182.5,241.3,182.5,240.9,182.5,240.5z M204.5,239.4c-0.2-2.1-1-4-2.2-5.6l1.5,0.3c0.8,1.2,1.3,2.5,1.6,3.9L204.5,239.4z
	 M194.4,249.8v-2.4c3.6-0.2,6.5-2.9,6.9-6.4h2.4C203.3,245.8,199.3,249.6,194.4,249.8z M184.5,241h2.4c0.3,3.5,3.1,6.2,6.6,6.4v2.4
	C188.7,249.6,184.8,245.7,184.5,241z M193.5,230.7v2.4c-3.6,0.2-6.5,3.3-6.6,6.9h-2.4C184.6,235.1,188.6,230.9,193.5,230.7z
	 M203.7,240h-2.4c-0.1-3.6-3.1-6.7-6.9-6.9v-2.4C199.4,230.9,203.5,234.9,203.7,240z M200.4,240.2c0,2.5-1.4,4.6-3.5,5.7l0.8-1.5
	l0,0v0l2.6-5.4C200.3,239.4,200.4,239.8,200.4,240.2z M194.1,246.6c-0.6,0-1.1-0.1-1.6-0.2l1.2-2.5l1.2,2.7
	C194.6,246.5,194.4,246.6,194.1,246.6z M194.1,233.9c1.4,0,2.8,0.5,3.8,1.3l-0.2-0.1l-2.3,4.5l-0.3-0.5h-2.6l-1.9-4.2
	C191.6,234.3,192.8,233.9,194.1,233.9z M195.7,246.2l-2.8-6.2h1.7l2.1,4.3L195.7,246.2z M191.9,245.4l-1.1-2.4l1.4-2.4l1,2.2
	L191.9,245.4z M195.9,240.7l2.6-5c0.6,0.6,1.1,1.3,1.4,2.1l-2.7,5.6L195.9,240.7z M189.9,235.5l1.9,4.1l-1.4,2.4l-2-4.3
	C188.7,236.9,189.2,236.1,189.9,235.5z M187.9,239l3.3,6.9c-2-1.1-3.4-3.2-3.4-5.6C187.8,239.8,187.8,239.4,187.9,239z M195.4,229.9
	l1.1-0.8c1.4,0.3,2.7,0.8,3.9,1.6l0.3,1.4C199.2,230.9,197.4,230.1,195.4,229.9z M187.6,232l0.3-1.4c1.1-0.7,2.4-1.2,3.7-1.5l1,0.8
	C190.7,230.1,189,230.9,187.6,232z M183.7,239.2l-0.9-1.2c0.3-1.4,0.9-2.7,1.7-3.9l1.5-0.4C184.7,235.2,183.9,237.1,183.7,239.2z
	 M183.7,241.7c0.3,1.9,1.1,3.7,2.3,5.2l-1.8-0.4c-0.6-1.1-1.1-2.2-1.4-3.5L183.7,241.7z M192.8,250.6l-1.5,1.1
	c-1.2-0.3-2.4-0.8-3.4-1.5l-0.4-1.9C189,249.6,190.8,250.4,192.8,250.6z M200.7,248.3l-0.4,1.9c-1.1,0.7-2.3,1.2-3.5,1.5l-1.5-1.1
	C197.3,250.4,199.2,249.6,200.7,248.3z M204.5,241.5l1,1.4c-0.3,1.3-0.8,2.5-1.4,3.6l-1.8,0.3C203.5,245.3,204.2,243.5,204.5,241.5z
	 M203.2,233.2l-1.6-0.3l-0.2-1.5C202,231.9,202.6,232.5,203.2,233.2z M195.3,228.9l-1.2,0.9c0,0-0.1,0-0.1,0l-1.1-0.9
	c0.4,0,0.9-0.1,1.3-0.1C194.5,228.8,194.9,228.9,195.3,228.9z M186.9,231.3l-0.2,1.5l-1.5,0.3C185.7,232.4,186.3,231.9,186.9,231.3z
	 M184.9,247.4l1.8,0.3l0.3,1.8C186.2,249,185.5,248.2,184.9,247.4z M192.5,251.9l1.5-1.1l1.6,1.1c-0.5,0.1-1,0.1-1.5,0.1
	C193.6,252.1,193,252,192.5,251.9z M201.3,249.6l0.3-1.9l1.8-0.2C202.8,248.2,202.1,248.9,201.3,249.6z"/>
<g>
	<path fill="#2A4494" d="M211.8,235.6c-0.1-0.4-0.3-0.4-0.7-0.4h-0.2V234h0.6c1,0,1.4,0.2,1.6,1.1l2.3,9.3c0.2,0.7,0.3,1.4,0.3,1.4
		h0c0,0,0.2-0.8,0.4-1.4l3-10.3h1.3l2.7,10.3c0.2,0.7,0.3,1.4,0.3,1.4h0c0,0,0.1-0.8,0.3-1.4l2.4-9.3c0.2-0.9,0.7-1.1,1.6-1.1h0.6
		v1.2h-0.2c-0.4,0-0.6,0.1-0.7,0.4l-3.1,11.9h-1.6l-2.5-9.4c-0.2-0.9-0.4-2-0.4-2h0c0,0-0.2,1.1-0.5,2l-2.8,9.4h-1.6L211.8,235.6z"
		/>
	<path fill="#2A4494" d="M233.2,237.6c2.7,0,4,2,4,4.4c0,0.2,0,0.7,0,0.7h-7.4c0,2.4,1.7,3.8,3.7,3.8c1.8,0,2.9-1.2,2.9-1.2l0.6,1
		c0,0-1.4,1.4-3.6,1.4c-2.9,0-5-2.1-5-5C228.4,239.5,230.6,237.6,233.2,237.6z M235.9,241.7c-0.1-2-1.3-3-2.7-3c-1.6,0-3,1-3.3,3
		H235.9z"/>
	<path fill="#2A4494" d="M239.8,235.5c0-0.3-0.2-0.4-0.4-0.4h-0.8V234h1.4c0.8,0,1.2,0.3,1.2,1.2v3.5c0,0.4,0,0.8,0,0.8h0
		c0,0,0.8-1.8,3.3-1.8c2.6,0,4.2,2.1,4.2,5.1c0,3-1.8,5-4.3,5c-2.3,0-3.2-1.9-3.2-1.9h0c0,0,0,0.3,0,0.8v0.8h-1.3V235.5z
		 M244.1,246.5c1.7,0,3.1-1.4,3.1-3.9c0-2.4-1.3-3.9-3-3.9c-1.6,0-3.1,1.1-3.1,3.9C241,244.6,242,246.5,244.1,246.5z"/>
	<path fill="#2A4494" d="M251.1,238.9h-1.3v-1.1h1.3v-2.7h1.3v2.7h2.4v1.1h-2.4v4.9c0,2.3,1.4,2.5,2.2,2.5c0.3,0,0.4,0,0.4,0v1.2
		c0,0-0.2,0-0.6,0c-1.1,0-3.4-0.4-3.4-3.6L251.1,238.9L251.1,238.9z"/>
	<path fill="#2A4494" d="M257.5,239.4c0-0.3-0.2-0.4-0.4-0.4h-0.8v-1.1h1.4c0.8,0,1.2,0.3,1.2,1.2v6.9c0,0.3,0.2,0.4,0.4,0.4h0.8
		v1.1h-1.4c-0.8,0-1.2-0.3-1.2-1.2V239.4z M257.5,234h1.3v1.6h-1.3V234z"/>
	<path fill="#2A4494" d="M261.9,245.1c0,0,1.1,1.5,3,1.5c1.1,0,2-0.5,2-1.5c0-2.1-5.4-1.7-5.4-4.8c0-1.7,1.5-2.6,3.4-2.6
		c1,0,2.9,0.4,2.9,1.7v0.8h-1.2v-0.5c0-0.7-1-1-1.7-1c-1.3,0-2.1,0.5-2.1,1.4c0,2.2,5.4,1.7,5.4,4.9c0,1.6-1.5,2.7-3.4,2.7
		c-2.5,0-3.7-1.7-3.7-1.7L261.9,245.1z"/>
	<path fill="#2A4494" d="M275.6,241.5h0.5v-0.1c0-2-0.7-2.7-2.5-2.7c-0.5,0-1.9,0.1-1.9,0.8v0.6h-1.2v-0.9c0-1.3,2.3-1.6,3.1-1.6
		c3,0,3.8,1.6,3.8,3.7v4.6c0,0.3,0.2,0.4,0.4,0.4h0.8v1.1h-1.3c-0.8,0-1.1-0.4-1.1-1.1c0-0.4,0-0.7,0-0.7h0c0,0-0.8,2.1-3.2,2.1
		c-1.6,0-3.3-0.9-3.3-2.9C269.7,241.6,274,241.5,275.6,241.5z M273.2,246.6c1.8,0,3-1.9,3-3.6v-0.4h-0.6c-1.5,0-4.5,0-4.5,2.2
		C271.1,245.6,271.8,246.6,273.2,246.6z"/>
	<path fill="#2A4494" d="M280.8,239.4c0-0.3-0.2-0.4-0.4-0.4h-0.8v-1.1h1.3c0.8,0,1.2,0.3,1.2,1.1v0.4c0,0.4,0,0.7,0,0.7h0
		c0.3-0.9,1.6-2.4,3.8-2.4c2.4,0,3.2,1.4,3.2,3.7v4.6c0,0.3,0.2,0.4,0.4,0.4h0.8v1.1H289c-0.8,0-1.2-0.3-1.2-1.2v-4.6
		c0-1.5-0.2-2.9-2.1-2.9c-1.6,0-3.1,1.1-3.5,2.7c-0.1,0.4-0.2,0.8-0.2,1.3v4.6h-1.3V239.4z"/>
	<path fill="#2A4494" d="M292,245.1c0,0,1.1,1.5,3,1.5c1.1,0,2-0.5,2-1.5c0-2.1-5.4-1.7-5.4-4.8c0-1.7,1.5-2.6,3.4-2.6
		c1,0,2.9,0.4,2.9,1.7v0.8h-1.2v-0.5c0-0.7-1-1-1.7-1c-1.3,0-2.1,0.5-2.1,1.4c0,2.2,5.4,1.7,5.4,4.9c0,1.6-1.5,2.7-3.4,2.7
		c-2.5,0-3.7-1.7-3.7-1.7L292,245.1z"/>
</g>
</svg>
